#!OML:ASF X:\für Bonn\!DataBase\2005_08_12_Daniel\c3d\Daniel.ASF
:FULLY-SPECIFIED
:DEGREES
46
root 0.305462 16.8131 -0.700732 167.679 -1.50669 -178.497
lowerback 36.5425 -0.793033 9.04207
upperback 11.7078 -2.00727 -0.0378595
thorax -5.11163 -2.51006 -3.88002
lowerneck 6.43235 0.106524 -4.95262
upperneck 15.9769 -1.72803 0.486837
head 4.18045 -1.73147 0.951408
rclavicle -4.17448e-015 -3.37934e-015
rhumerus -7.48483 -20.191 -85.5037
rradius 7.76529
rwrist 37.5736
rhand -18.7686 8.0617
rfingers 7.12502
rthumb 7.52849 -21.7843
lclavicle -4.17448e-015 -3.37934e-015
lhumerus -27.7942 12.1875 89.1983
lradius 42.3212
lwrist -5.59233
lhand -12.9753 -6.23806
lfingers 7.12502
lthumb 13.1171 23.3294
rfemur -18.1221 -3.0975 21.4577
rtibia 39.8889
rfoot -10.4331 -2.59089
rtoes -7.77738
lfemur -17.5109 1.61834 -12.9605
ltibia 70.5742
lfoot -17.1897 -9.8617
ltoes -12.8739
47
root 0.322613 16.7985 -0.728112 167.681 -1.55669 -178.604
lowerback 37.1826 -0.749688 9.13501
upperback 11.9503 -2.03484 -0.0540893
thorax -5.05409 -2.57563 -3.91471
lowerneck 6.53342 0.000421251 -4.95385
upperneck 15.5797 -1.82778 0.590067
head 4.02143 -1.74729 0.988311
rclavicle -1.86858e-014 -1.49089e-014
rhumerus -6.57585 -20.5329 -85.5199
rradius 8.1546
rwrist 37.9319
rhand -18.9722 8.5673
rfingers 7.12502
rthumb 7.33201 -21.2857
lclavicle -1.86858e-014 -1.49089e-014
lhumerus -27.6866 11.6544 89.4041
lradius 42.9274
lwrist -4.66679
lhand -13.4228 -6.36141
lfingers 7.12502
lthumb 12.6857 23.2333
rfemur -18.3155 -3.13201 21.4042
rtibia 40.4061
rfoot -10.7564 -2.5497
rtoes -7.83567
lfemur -18.2763 1.86382 -13.262
ltibia 69.7883
lfoot -17.679 -10.5506
ltoes -13.2581
48
root 0.33924 16.786 -0.753814 167.686 -1.56347 -178.702
lowerback 37.8011 -0.680921 9.2257
upperback 12.2218 -2.04756 -0.0487461
thorax -4.94939 -2.63792 -3.93279
lowerneck 6.60657 -0.108491 -5.01575
upperneck 15.1359 -1.92394 0.701943
head 3.85329 -1.76127 1.03878
rclavicle -1.37161e-014 -1.59028e-015
rhumerus -5.58423 -20.8646 -85.5567
rradius 8.49521
rwrist 38.2863
rhand -19.1842 9.07218
rfingers 7.12502
rthumb 7.12736 -20.7878
lclavicle -1.37161e-014 -1.59028e-015
lhumerus -27.535 11.1644 89.6256
lradius 43.5666
lwrist -3.7939
lhand -13.8466 -6.53214
lfingers 7.12502
lthumb 12.2771 23.0875
rfemur -18.5065 -3.13102 21.3636
rtibia 40.8975
rfoot -11.0708 -2.48796
rtoes -7.96656
lfemur -18.9808 2.13069 -13.5447
ltibia 68.9772
lfoot -18.1899 -11.2289
ltoes -13.8249
49
root 0.354958 16.7745 -0.777153 167.715 -1.57938 -178.827
lowerback 38.4431 -0.619391 9.28379
upperback 12.4517 -2.06554 -0.056495
thorax -4.89644 -2.70077 -3.94362
lowerneck 6.60189 -0.214932 -5.04192
upperneck 14.7988 -2.01984 0.791585
head 3.7383 -1.77975 1.07435
rclavicle 3.37934e-015 7.15625e-015
rhumerus -4.62956 -21.1865 -85.6145
rradius 8.83788
rwrist 38.6285
rhand -19.3251 9.56669
rfingers 7.12502
rthumb 6.99129 -20.2979
lclavicle 3.37934e-015 7.15625e-015
lhumerus -27.4447 10.6989 89.8047
lradius 44.2484
lwrist -3.03865
lhand -14.2338 -6.68768
lfingers 7.12502
lthumb 11.9037 22.9539
rfemur -18.7175 -3.14162 21.2886
rtibia 41.3641
rfoot -11.3447 -2.42526
rtoes -8.11841
lfemur -19.7131 2.39514 -13.8725
ltibia 68.2011
lfoot -18.6557 -11.7457
ltoes -14.4862
